<svg xmlns="http://www.w3.org/2000/svg" width="62" height="16" viewBox="0 0 62 16">
    <g fill="none" fill-rule="evenodd">
        <path fill="#6C6E70" fill-rule="nonzero" d="M4.66.612h3.044L4.215 12.75h12.43L20.068.612h3.103l-3.854 13.713c-.224.965-1.04 1.448-2.45 1.448H1.892c-1.108.005-1.419-.819-.932-2.471.487-1.653 1.72-5.883 3.7-12.69zM25.4.544h15.945c1.548 0 2.283.441 2.206 1.325-.85 3.213-1.428 5.292-1.733 6.237-.306.945-.943 1.479-1.912 1.602H25.773l-1.648 5.96h-3.049l2.621-8.98h15.325l.884-3.298H24.5L25.4.544zM46.218.47h2.959l-4.245 15.172h-3.063L46.218.47z"/>
        <path fill="#008B44" d="M57.993.963l-4.202 15.032 8.054-7.516z"/>
        <path fill="#F37820" d="M55.267.714l-4.203 15.032L59.12 8.23z"/>
    </g>
</svg>
